STARTFONT 2.1
FONT -FontForge-CordiaUPC-Book-R-Normal--32-310-75-75-P-103-ISO10646-1
SIZE 31 75 75
FONTBOUNDINGBOX 39 46 -14 -16
COMMENT "Generated by fontforge, http://fontforge.sourceforge.net"
COMMENT "(c) 1992 Unity Progress. Portions (c) 2004 The Monotype Corporation. Portions (c) 2004 Microsoft Corporation. All Rights Reserved."
STARTPROPERTIES 40
FOUNDRY "FontForge"
FAMILY_NAME "CordiaUPC"
WEIGHT_NAME "Book"
SLANT "R"
SETWIDTH_NAME "Normal"
ADD_STYLE_NAME ""
PIXEL_SIZE 32
POINT_SIZE 310
RESOLUTION_X 75
RESOLUTION_Y 75
SPACING "P"
AVERAGE_WIDTH 103
CHARSET_REGISTRY "ISO10646"
CHARSET_ENCODING "1"
FONTNAME_REGISTRY ""
CHARSET_COLLECTIONS "ISO8859-11 ISO10646-1"
FONT_NAME "CordiaUPC"
FACE_NAME "CordiaUPC"
COPYRIGHT "(c) 1992 Unity Progress. Portions (c) 2004 The Monotype Corporation. Portions (c) 2004 Microsoft Corporation. All Rights Reserved."
FONT_VERSION "5.01"
FONT_ASCENT 26
FONT_DESCENT 6
UNDERLINE_POSITION -2
UNDERLINE_THICKNESS 1
X_HEIGHT 10
CAP_HEIGHT 14
RAW_ASCENT 799
RAW_DESCENT 200
NORM_SPACE 6
RELATIVE_WEIGHT 40
RELATIVE_SETWIDTH 50
SUPERSCRIPT_X 0
SUPERSCRIPT_Y 5
SUPERSCRIPT_SIZE 20
SUBSCRIPT_X 0
SUBSCRIPT_Y 1
SUBSCRIPT_SIZE 20
FIGURE_WIDTH 12
AVG_LOWERCASE_WIDTH 111
AVG_UPPERCASE_WIDTH 138
ENDPROPERTIES
CHARS 365
STARTCHAR space
ENCODING 32
SWIDTH 182 0
DWIDTH 6 0
BBX 1 1 0 0
BITMAP
00
ENDCHAR
STARTCHAR exclam
ENCODING 33
SWIDTH 218 0
DWIDTH 7 0
BBX 1 15 3 0
BITMAP
80
80
80
80
80
80
80
80
80
80
80
00
00
80
80
ENDCHAR
STARTCHAR quotedbl
ENCODING 34
SWIDTH 182 0
DWIDTH 6 0
BBX 4 5 1 10
BITMAP
90
90
90
90
90
ENDCHAR
STARTCHAR numbersign
ENCODING 35
SWIDTH 364 0
DWIDTH 12 0
BBX 10 15 1 0
BITMAP
1080
1080
1080
1080
FFC0
2100
2100
2100
2100
4200
FFC0
4200
4200
4200
8400
ENDCHAR
STARTCHAR dollar
ENCODING 36
SWIDTH 364 0
DWIDTH 12 0
BBX 10 18 1 -2
BITMAP
0800
3E00
6B00
C980
8880
8800
4800
7800
1E00
0980
0880
08C0
8880
C880
6980
3E00
0800
0800
ENDCHAR
STARTCHAR percent
ENCODING 37
SWIDTH 582 0
DWIDTH 19 0
BBX 16 15 1 0
BITMAP
3808
4410
C410
8420
8420
C440
4480
388E
0113
0121
0221
0421
0421
0813
080E
ENDCHAR
STARTCHAR ampersand
ENCODING 38
SWIDTH 437 0
DWIDTH 14 0
BBX 12 15 1 0
BITMAP
0E00
1100
3180
2180
3100
1300
0C00
3400
6220
C360
C1C0
C0C0
41E0
6330
1E10
ENDCHAR
STARTCHAR quotesingle
ENCODING 39
SWIDTH 145 0
DWIDTH 5 0
BBX 1 5 2 10
BITMAP
80
80
80
80
80
ENDCHAR
STARTCHAR parenleft
ENCODING 40
SWIDTH 218 0
DWIDTH 7 0
BBX 4 19 2 -4
BITMAP
10
20
20
40
40
C0
80
80
80
80
80
80
80
80
40
40
60
20
10
ENDCHAR
STARTCHAR parenright
ENCODING 41
SWIDTH 218 0
DWIDTH 7 0
BBX 4 19 1 -4
BITMAP
80
40
40
20
20
30
10
10
10
10
10
10
10
30
20
20
40
40
80
ENDCHAR
STARTCHAR asterisk
ENCODING 42
SWIDTH 254 0
DWIDTH 8 0
BBX 6 6 1 9
BITMAP
30
10
E4
38
38
48
ENDCHAR
STARTCHAR plus
ENCODING 43
SWIDTH 432 0
DWIDTH 14 0
BBX 11 11 1 2
BITMAP
0400
0400
0400
0400
0400
FFE0
0400
0400
0400
0400
0400
ENDCHAR
STARTCHAR comma
ENCODING 44
SWIDTH 182 0
DWIDTH 6 0
BBX 2 5 2 -3
BITMAP
C0
C0
40
40
80
ENDCHAR
STARTCHAR hyphen
ENCODING 45
SWIDTH 218 0
DWIDTH 7 0
BBX 5 1 1 5
BITMAP
F8
ENDCHAR
STARTCHAR period
ENCODING 46
SWIDTH 182 0
DWIDTH 6 0
BBX 2 2 2 0
BITMAP
C0
C0
ENDCHAR
STARTCHAR slash
ENCODING 47
SWIDTH 182 0
DWIDTH 6 0
BBX 6 15 0 0
BITMAP
04
08
08
08
10
10
10
20
20
20
40
40
40
80
80
ENDCHAR
STARTCHAR zero
ENCODING 48
SWIDTH 364 0
DWIDTH 12 0
BBX 10 15 1 0
BITMAP
1E00
6300
4180
C080
C080
8080
8080
80C0
80C0
8080
C080
C080
4180
6300
1E00
ENDCHAR
STARTCHAR one
ENCODING 49
SWIDTH 364 0
DWIDTH 12 0
BBX 5 15 2 0
BITMAP
08
18
38
68
88
08
08
08
08
08
08
08
08
08
08
ENDCHAR
STARTCHAR two
ENCODING 50
SWIDTH 364 0
DWIDTH 12 0
BBX 9 15 1 0
BITMAP
3E00
6180
C080
C080
0080
0080
0180
0300
0600
0C00
1000
2000
4000
C000
FF80
ENDCHAR
STARTCHAR three
ENCODING 51
SWIDTH 364 0
DWIDTH 12 0
BBX 10 15 1 0
BITMAP
3E00
6300
4180
C180
0180
0180
0300
0E00
0180
0080
00C0
80C0
C080
6180
3E00
ENDCHAR
STARTCHAR four
ENCODING 52
SWIDTH 364 0
DWIDTH 12 0
BBX 11 15 0 0
BITMAP
0180
0380
0380
0580
0D80
0980
1180
2180
6180
4180
FFE0
0180
0180
0180
0180
ENDCHAR
STARTCHAR five
ENCODING 53
SWIDTH 364 0
DWIDTH 12 0
BBX 10 15 1 0
BITMAP
3F80
6000
4000
4000
4000
5E00
6100
C080
0080
00C0
00C0
8080
4080
6100
3E00
ENDCHAR
STARTCHAR six
ENCODING 54
SWIDTH 364 0
DWIDTH 12 0
BBX 10 15 1 0
BITMAP
1E00
2180
4080
4000
C000
9E00
A180
C080
C080
C0C0
C0C0
C080
4080
6100
1E00
ENDCHAR
STARTCHAR seven
ENCODING 55
SWIDTH 364 0
DWIDTH 12 0
BBX 10 15 1 0
BITMAP
FFC0
0080
0100
0300
0200
0400
0C00
0800
0800
1800
1000
1000
1000
3000
3000
ENDCHAR
STARTCHAR eight
ENCODING 56
SWIDTH 364 0
DWIDTH 12 0
BBX 10 15 1 0
BITMAP
1E00
6100
4180
4080
4080
6100
1E00
6180
C080
80C0
80C0
80C0
C080
6180
3E00
ENDCHAR
STARTCHAR nine
ENCODING 57
SWIDTH 364 0
DWIDTH 12 0
BBX 10 15 1 0
BITMAP
1E00
6300
4180
C080
8080
80C0
C0C0
C1C0
63C0
3CC0
0080
0080
C180
6300
3E00
ENDCHAR
STARTCHAR colon
ENCODING 58
SWIDTH 182 0
DWIDTH 6 0
BBX 2 11 2 0
BITMAP
C0
C0
00
00
00
00
00
00
00
C0
C0
ENDCHAR
STARTCHAR semicolon
ENCODING 59
SWIDTH 182 0
DWIDTH 6 0
BBX 2 14 2 -3
BITMAP
C0
C0
00
00
00
00
00
00
00
C0
C0
40
40
80
ENDCHAR
STARTCHAR less
ENCODING 60
SWIDTH 432 0
DWIDTH 14 0
BBX 11 11 1 2
BITMAP
0020
00C0
0300
0C00
3000
C000
3000
0C00
0300
00C0
0020
ENDCHAR
STARTCHAR equal
ENCODING 61
SWIDTH 432 0
DWIDTH 14 0
BBX 11 6 1 4
BITMAP
FFE0
0000
0000
0000
0000
FFE0
ENDCHAR
STARTCHAR greater
ENCODING 62
SWIDTH 432 0
DWIDTH 14 0
BBX 11 11 1 2
BITMAP
8000
7000
0C00
0300
00C0
0020
00C0
0300
0C00
7000
8000
ENDCHAR
STARTCHAR question
ENCODING 63
SWIDTH 327 0
DWIDTH 10 0
BBX 9 15 1 0
BITMAP
3E00
6300
C100
8180
0180
0100
0300
0600
0C00
0800
1800
0000
0000
1800
1800
ENDCHAR
STARTCHAR at
ENCODING 64
SWIDTH 523 0
DWIDTH 17 0
BBX 17 18 0 -4
BITMAP
03F000
0C0C00
300200
200300
43C900
463900
881100
881080
981100
901100
903100
986200
88E400
473800
200100
300300
0C0C00
03F000
ENDCHAR
STARTCHAR A
ENCODING 65
SWIDTH 437 0
DWIDTH 14 0
BBX 14 15 0 0
BITMAP
0300
0700
0780
0480
0CC0
08C0
1840
1060
1020
3FF0
2010
6010
4018
4008
C00C
ENDCHAR
STARTCHAR B
ENCODING 66
SWIDTH 437 0
DWIDTH 14 0
BBX 11 15 2 0
BITMAP
FF00
8180
80C0
8040
8040
80C0
8180
FF00
80C0
8040
8060
8060
8060
80C0
FF80
ENDCHAR
STARTCHAR C
ENCODING 67
SWIDTH 473 0
DWIDTH 15 0
BBX 13 15 1 0
BITMAP
0FC0
1860
2030
6018
4018
C000
C000
C000
C000
C000
4008
6018
2010
3860
0FC0
ENDCHAR
STARTCHAR D
ENCODING 68
SWIDTH 473 0
DWIDTH 15 0
BBX 12 15 2 0
BITMAP
FF00
81C0
8060
8020
8030
8030
8030
8030
8030
8030
8030
8020
8060
80C0
FF00
ENDCHAR
STARTCHAR E
ENCODING 69
SWIDTH 400 0
DWIDTH 13 0
BBX 10 15 2 0
BITMAP
FF80
8000
8000
8000
8000
8000
8000
FF80
8000
8000
8000
8000
8000
8000
FFC0
ENDCHAR
STARTCHAR F
ENCODING 70
SWIDTH 364 0
DWIDTH 12 0
BBX 9 15 2 0
BITMAP
FF80
8000
8000
8000
8000
8000
8000
FF00
8000
8000
8000
8000
8000
8000
8000
ENDCHAR
STARTCHAR G
ENCODING 71
SWIDTH 509 0
DWIDTH 16 0
BBX 14 15 1 0
BITMAP
07C0
1830
3018
6008
400C
C000
C000
C000
C0FC
C004
4004
6004
300C
1818
07E0
ENDCHAR
STARTCHAR H
ENCODING 72
SWIDTH 473 0
DWIDTH 15 0
BBX 11 15 2 0
BITMAP
8020
8020
8020
8020
8020
8020
8020
FFE0
8020
8020
8020
8020
8020
8020
8020
ENDCHAR
STARTCHAR I
ENCODING 73
SWIDTH 182 0
DWIDTH 6 0
BBX 2 15 2 0
BITMAP
C0
C0
C0
C0
C0
C0
C0
C0
C0
C0
C0
C0
C0
C0
C0
ENDCHAR
STARTCHAR J
ENCODING 74
SWIDTH 327 0
DWIDTH 10 0
BBX 8 15 1 0
BITMAP
03
03
03
03
03
03
03
03
03
03
03
83
82
C6
7C
ENDCHAR
STARTCHAR K
ENCODING 75
SWIDTH 437 0
DWIDTH 14 0
BBX 12 15 2 0
BITMAP
8060
80C0
8180
8300
8600
8C00
9800
BC00
C600
8300
8100
8180
80C0
8060
8030
ENDCHAR
STARTCHAR L
ENCODING 76
SWIDTH 364 0
DWIDTH 12 0
BBX 9 15 2 0
BITMAP
8000
8000
8000
8000
8000
8000
8000
8000
8000
8000
8000
8000
8000
8000
FF80
ENDCHAR
STARTCHAR M
ENCODING 77
SWIDTH 545 0
DWIDTH 17 0
BBX 14 15 2 0
BITMAP
C01C
C01C
E01C
A03C
B02C
906C
906C
984C
88CC
888C
8C8C
858C
870C
830C
820C
ENDCHAR
STARTCHAR N
ENCODING 78
SWIDTH 473 0
DWIDTH 15 0
BBX 11 15 2 0
BITMAP
C020
C020
A020
A020
9020
8820
8820
8420
8220
8220
8120
8120
80A0
8060
8060
ENDCHAR
STARTCHAR O
ENCODING 79
SWIDTH 509 0
DWIDTH 16 0
BBX 14 15 1 0
BITMAP
0FC0
1830
2018
6008
400C
C00C
C004
C004
C004
C00C
400C
6008
2018
1830
0FC0
ENDCHAR
STARTCHAR P
ENCODING 80
SWIDTH 400 0
DWIDTH 13 0
BBX 10 15 2 0
BITMAP
FF00
8180
80C0
80C0
80C0
80C0
80C0
8180
FF00
8000
8000
8000
8000
8000
8000
ENDCHAR
STARTCHAR Q
ENCODING 81
SWIDTH 509 0
DWIDTH 16 0
BBX 14 16 1 -1
BITMAP
0FC0
1830
2018
6008
400C
C00C
C004
C004
C004
C00C
400C
6188
2078
1870
0F8C
0004
ENDCHAR
STARTCHAR R
ENCODING 82
SWIDTH 437 0
DWIDTH 14 0
BBX 12 15 2 0
BITMAP
FF80
80C0
8040
8060
8060
8040
80C0
FF00
8600
8100
8180
80C0
8040
8060
8030
ENDCHAR
STARTCHAR S
ENCODING 83
SWIDTH 400 0
DWIDTH 13 0
BBX 11 15 1 0
BITMAP
1F00
6080
4040
4040
4000
4000
3000
0F00
01C0
0060
8060
C060
4060
60C0
1F00
ENDCHAR
STARTCHAR T
ENCODING 84
SWIDTH 364 0
DWIDTH 12 0
BBX 11 15 0 0
BITMAP
FFE0
0600
0600
0600
0600
0600
0600
0600
0600
0600
0600
0600
0600
0600
0600
ENDCHAR
STARTCHAR U
ENCODING 85
SWIDTH 473 0
DWIDTH 15 0
BBX 11 15 2 0
BITMAP
8020
8020
8020
8020
8020
8020
8020
8020
8020
8020
8020
8020
C060
60C0
1F00
ENDCHAR
STARTCHAR V
ENCODING 86
SWIDTH 400 0
DWIDTH 13 0
BBX 13 15 0 0
BITMAP
C018
4010
6030
6020
2020
3060
1040
1040
18C0
0880
0880
0D00
0500
0700
0600
ENDCHAR
STARTCHAR W
ENCODING 87
SWIDTH 582 0
DWIDTH 19 0
BBX 18 15 0 0
BITMAP
C0C040
40E040
40A0C0
61A080
61A080
213080
211180
331100
321100
121B00
120B00
1E0A00
0C0E00
0C0E00
0C0400
ENDCHAR
STARTCHAR X
ENCODING 88
SWIDTH 400 0
DWIDTH 13 0
BBX 12 15 0 0
BITMAP
6010
3020
1060
18C0
0C80
0580
0700
0700
0500
0D80
18C0
1040
3060
6030
C010
ENDCHAR
STARTCHAR Y
ENCODING 89
SWIDTH 400 0
DWIDTH 13 0
BBX 12 15 0 0
BITMAP
C010
6030
2020
3040
18C0
0880
0D00
0700
0200
0200
0200
0200
0200
0200
0200
ENDCHAR
STARTCHAR Z
ENCODING 90
SWIDTH 400 0
DWIDTH 13 0
BBX 11 15 1 0
BITMAP
FFE0
0060
00C0
0180
0100
0300
0600
0C00
0800
1800
3000
6000
4000
C000
FFE0
ENDCHAR
STARTCHAR bracketleft
ENCODING 91
SWIDTH 218 0
DWIDTH 7 0
BBX 4 19 2 -4
BITMAP
F0
80
80
80
80
80
80
80
80
80
80
80
80
80
80
80
80
80
F0
ENDCHAR
STARTCHAR backslash
ENCODING 92
SWIDTH 182 0
DWIDTH 6 0
BBX 6 15 0 0
BITMAP
80
80
40
40
40
20
20
20
10
10
10
08
08
08
04
ENDCHAR
STARTCHAR bracketright
ENCODING 93
SWIDTH 218 0
DWIDTH 7 0
BBX 4 19 1 -4
BITMAP
F0
10
10
10
10
10
10
10
10
10
10
10
10
10
10
10
10
10
F0
ENDCHAR
STARTCHAR asciicircum
ENCODING 94
SWIDTH 432 0
DWIDTH 14 0
BBX 9 6 2 9
BITMAP
0800
0C00
1200
2100
4080
8080
ENDCHAR
STARTCHAR underscore
ENCODING 95
SWIDTH 327 0
DWIDTH 10 0
BBX 11 1 0 -3
BITMAP
FFE0
ENDCHAR
STARTCHAR grave
ENCODING 96
SWIDTH 218 0
DWIDTH 7 0
BBX 2 3 2 12
BITMAP
C0
C0
40
ENDCHAR
STARTCHAR a
ENCODING 97
SWIDTH 364 0
DWIDTH 12 0
BBX 9 11 1 0
BITMAP
3E00
6180
C080
0080
0780
7C80
C080
8180
8180
C280
7C80
ENDCHAR
STARTCHAR b
ENCODING 98
SWIDTH 400 0
DWIDTH 13 0
BBX 10 15 2 0
BITMAP
8000
8000
8000
8000
9E00
A180
C080
80C0
80C0
8040
80C0
80C0
C080
A180
9E00
ENDCHAR
STARTCHAR c
ENCODING 99
SWIDTH 364 0
DWIDTH 12 0
BBX 10 11 1 0
BITMAP
1E00
6180
4080
C000
8000
8000
8000
C000
40C0
6180
1E00
ENDCHAR
STARTCHAR d
ENCODING 100
SWIDTH 400 0
DWIDTH 13 0
BBX 10 15 1 0
BITMAP
0040
0040
0040
0040
1E40
6140
40C0
C040
8040
8040
8040
C040
40C0
61C0
1E40
ENDCHAR
STARTCHAR e
ENCODING 101
SWIDTH 364 0
DWIDTH 12 0
BBX 10 11 1 0
BITMAP
1E00
6100
4080
C080
80C0
FFC0
8000
8000
4080
6180
1E00
ENDCHAR
STARTCHAR f
ENCODING 102
SWIDTH 182 0
DWIDTH 6 0
BBX 6 15 0 0
BITMAP
1C
30
20
20
FC
20
20
20
20
20
20
20
20
20
20
ENDCHAR
STARTCHAR g
ENCODING 103
SWIDTH 400 0
DWIDTH 13 0
BBX 10 15 1 -4
BITMAP
1E40
6140
40C0
C040
8040
8040
8040
C040
40C0
6140
1E40
0040
40C0
6180
3F00
ENDCHAR
STARTCHAR h
ENCODING 104
SWIDTH 364 0
DWIDTH 12 0
BBX 8 15 2 0
BITMAP
80
80
80
80
BE
E3
C1
81
81
81
81
81
81
81
81
ENDCHAR
STARTCHAR i
ENCODING 105
SWIDTH 145 0
DWIDTH 5 0
BBX 1 15 2 0
BITMAP
80
80
00
00
80
80
80
80
80
80
80
80
80
80
80
ENDCHAR
STARTCHAR j
ENCODING 106
SWIDTH 145 0
DWIDTH 5 0
BBX 4 19 -1 -4
BITMAP
10
10
00
00
10
10
10
10
10
10
10
10
10
10
10
10
10
30
E0
ENDCHAR
STARTCHAR k
ENCODING 107
SWIDTH 327 0
DWIDTH 10 0
BBX 8 15 2 0
BITMAP
80
80
80
80
83
84
88
90
B0
D0
88
8C
86
82
83
ENDCHAR
STARTCHAR l
ENCODING 108
SWIDTH 145 0
DWIDTH 5 0
BBX 1 15 2 0
BITMAP
80
80
80
80
80
80
80
80
80
80
80
80
80
80
80
ENDCHAR
STARTCHAR m
ENCODING 109
SWIDTH 545 0
DWIDTH 17 0
BBX 14 11 2 0
BITMAP
BC70
C688
C30C
8304
8204
8204
8204
8204
8204
8204
8204
ENDCHAR
STARTCHAR n
ENCODING 110
SWIDTH 364 0
DWIDTH 12 0
BBX 8 11 2 0
BITMAP
BE
E3
C1
81
81
81
81
81
81
81
81
ENDCHAR
STARTCHAR o
ENCODING 111
SWIDTH 364 0
DWIDTH 12 0
BBX 10 11 1 0
BITMAP
3E00
6100
4080
C080
80C0
80C0
80C0
C080
4080
6100
1E00
ENDCHAR
STARTCHAR p
ENCODING 112
SWIDTH 400 0
DWIDTH 13 0
BBX 10 15 2 -4
BITMAP
9E00
A180
C080
80C0
80C0
8040
80C0
80C0
C080
A180
9E00
8000
8000
8000
8000
ENDCHAR
STARTCHAR q
ENCODING 113
SWIDTH 400 0
DWIDTH 13 0
BBX 10 15 1 -4
BITMAP
1E40
6140
40C0
C040
8040
8040
8040
C040
40C0
61C0
1E40
0040
0040
0040
0040
ENDCHAR
STARTCHAR r
ENCODING 114
SWIDTH 218 0
DWIDTH 7 0
BBX 5 11 2 0
BITMAP
B8
C0
80
80
80
80
80
80
80
80
80
ENDCHAR
STARTCHAR s
ENCODING 115
SWIDTH 327 0
DWIDTH 10 0
BBX 8 11 1 0
BITMAP
3C
42
81
80
40
3C
03
01
81
C3
3E
ENDCHAR
STARTCHAR t
ENCODING 116
SWIDTH 182 0
DWIDTH 6 0
BBX 6 15 0 0
BITMAP
20
20
20
20
F8
20
20
20
20
20
20
20
20
20
1C
ENDCHAR
STARTCHAR u
ENCODING 117
SWIDTH 364 0
DWIDTH 12 0
BBX 8 11 2 0
BITMAP
81
81
81
81
81
81
81
83
83
C5
79
ENDCHAR
STARTCHAR v
ENCODING 118
SWIDTH 327 0
DWIDTH 10 0
BBX 10 11 0 0
BITMAP
C040
40C0
6080
2080
2100
3100
1300
1200
0A00
0C00
0C00
ENDCHAR
STARTCHAR w
ENCODING 119
SWIDTH 473 0
DWIDTH 15 0
BBX 15 11 0 0
BITMAP
C106
4184
4284
6284
2288
2648
2448
1458
1450
1830
0830
ENDCHAR
STARTCHAR x
ENCODING 120
SWIDTH 327 0
DWIDTH 10 0
BBX 9 11 1 0
BITMAP
8180
4300
6200
3400
1C00
1800
1C00
2600
6200
C100
8180
ENDCHAR
STARTCHAR y
ENCODING 121
SWIDTH 327 0
DWIDTH 10 0
BBX 9 15 1 -4
BITMAP
8080
8180
C100
4100
4300
2200
2600
3400
1400
1C00
1800
1800
1000
1000
E000
ENDCHAR
STARTCHAR z
ENCODING 122
SWIDTH 327 0
DWIDTH 10 0
BBX 10 11 0 0
BITMAP
7FC0
0180
0100
0300
0600
0C00
1800
1000
2000
6000
FFC0
ENDCHAR
STARTCHAR braceleft
ENCODING 123
SWIDTH 218 0
DWIDTH 7 0
BBX 5 19 1 -4
BITMAP
18
30
20
20
20
20
20
20
40
80
40
20
20
20
20
20
20
30
18
ENDCHAR
STARTCHAR bar
ENCODING 124
SWIDTH 145 0
DWIDTH 5 0
BBX 1 19 2 -4
BITMAP
80
80
80
80
80
80
80
80
80
80
80
80
80
80
80
80
80
80
80
ENDCHAR
STARTCHAR braceright
ENCODING 125
SWIDTH 218 0
DWIDTH 7 0
BBX 5 19 1 -4
BITMAP
C0
60
20
20
20
20
20
20
10
08
10
20
20
20
20
20
20
60
C0
ENDCHAR
STARTCHAR asciitilde
ENCODING 126
SWIDTH 432 0
DWIDTH 14 0
BBX 11 3 1 6
BITMAP
7800
8620
01C0
ENDCHAR
STARTCHAR uni007F
ENCODING 127
SWIDTH 500 0
DWIDTH 16 0
BBX 1 1 0 0
BITMAP
00
ENDCHAR
STARTCHAR space.dup1
ENCODING 160
SWIDTH 182 0
DWIDTH 6 0
BBX 1 1 0 0
BITMAP
00
ENDCHAR
STARTCHAR exclamdown
ENCODING 161
SWIDTH 226 0
DWIDTH 7 0
BBX 2 15 3 -4
BITMAP
80
80
00
00
80
80
80
80
80
80
80
80
C0
C0
C0
ENDCHAR
STARTCHAR cent
ENCODING 162
SWIDTH 377 0
DWIDTH 12 0
BBX 9 19 1 -4
BITMAP
0100
0100
0100
0200
1E00
3380
6480
4400
C400
C400
C800
4880
4880
7180
1F00
1000
1000
2000
2000
ENDCHAR
STARTCHAR sterling
ENCODING 163
SWIDTH 377 0
DWIDTH 12 0
BBX 10 15 1 0
BITMAP
1F00
6180
60C0
4000
4000
6000
6000
FC00
2000
2000
2000
2000
4000
B800
C7C0
ENDCHAR
STARTCHAR currency
ENCODING 164
SWIDTH 377 0
DWIDTH 12 0
BBX 10 9 1 3
BITMAP
CCC0
7F80
6180
4080
4080
4080
6180
7780
CCC0
ENDCHAR
STARTCHAR yen
ENCODING 165
SWIDTH 377 0
DWIDTH 12 0
BBX 10 15 1 0
BITMAP
8040
C0C0
4080
6180
2300
1200
1E00
0C00
FFC0
0C00
0C00
FFC0
0C00
0C00
0C00
ENDCHAR
STARTCHAR brokenbar
ENCODING 166
SWIDTH 176 0
DWIDTH 6 0
BBX 1 20 2 -5
BITMAP
80
80
80
80
80
80
80
80
00
00
00
00
80
80
80
80
80
80
80
80
ENDCHAR
STARTCHAR section
ENCODING 167
SWIDTH 377 0
DWIDTH 12 0
BBX 10 20 1 -5
BITMAP
3F00
6100
6180
6000
3000
3800
4E00
8300
8180
C0C0
6040
30C0
1D80
0600
0100
0180
4080
6180
3F00
0400
ENDCHAR
STARTCHAR dieresis
ENCODING 168
SWIDTH 226 0
DWIDTH 7 0
BBX 5 2 1 13
BITMAP
88
88
ENDCHAR
STARTCHAR copyright
ENCODING 169
SWIDTH 500 0
DWIDTH 16 0
BBX 16 15 0 0
BITMAP
07E0
1818
2004
41C2
4622
8801
8801
8801
8801
8812
4422
43C2
2004
1818
07E0
ENDCHAR
STARTCHAR ordfeminine
ENCODING 170
SWIDTH 250 0
DWIDTH 8 0
BBX 6 7 1 8
BITMAP
78
84
04
7C
84
8C
F4
ENDCHAR
STARTCHAR guillemotleft
ENCODING 171
SWIDTH 377 0
DWIDTH 12 0
BBX 8 9 2 1
BITMAP
11
22
66
44
8C
CC
44
22
21
ENDCHAR
STARTCHAR logicalnot
ENCODING 172
SWIDTH 396 0
DWIDTH 13 0
BBX 10 5 1 5
BITMAP
FFC0
0040
0040
0040
0040
ENDCHAR
STARTCHAR uni00AD
ENCODING 173
SWIDTH 226 0
DWIDTH 7 0
BBX 5 1 1 5
BITMAP
F8
ENDCHAR
STARTCHAR registered
ENCODING 174
SWIDTH 500 0
DWIDTH 16 0
BBX 16 15 0 0
BITMAP
07E0
1818
2004
4002
47E2
8421
8421
87C1
8481
8442
4422
4422
2004
1818
07E0
ENDCHAR
STARTCHAR macron
ENCODING 175
SWIDTH 375 0
DWIDTH 12 0
BBX 12 1 0 16
BITMAP
FFF0
ENDCHAR
STARTCHAR degree
ENCODING 176
SWIDTH 271 0
DWIDTH 9 0
BBX 5 5 2 10
BITMAP
F0
88
88
88
70
ENDCHAR
STARTCHAR plusminus
ENCODING 177
SWIDTH 372 0
DWIDTH 12 0
BBX 10 13 1 0
BITMAP
0C00
0C00
0C00
0C00
0C00
FFC0
0C00
0C00
0C00
0C00
0000
0000
FFC0
ENDCHAR
STARTCHAR uni00B2
ENCODING 178
SWIDTH 226 0
DWIDTH 7 0
BBX 6 7 1 8
BITMAP
F8
8C
08
18
30
40
FC
ENDCHAR
STARTCHAR uni00B3
ENCODING 179
SWIDTH 226 0
DWIDTH 7 0
BBX 6 7 1 8
BITMAP
78
88
08
30
08
0C
F8
ENDCHAR
STARTCHAR acute
ENCODING 180
SWIDTH 226 0
DWIDTH 7 0
BBX 2 2 3 13
BITMAP
40
80
ENDCHAR
STARTCHAR mu
ENCODING 181
SWIDTH 391 0
DWIDTH 13 0
BBX 9 15 2 -4
BITMAP
8180
8180
8180
8180
8180
8180
8180
8180
C180
C380
BD80
8000
8000
8000
8000
ENDCHAR
STARTCHAR paragraph
ENCODING 182
SWIDTH 364 0
DWIDTH 12 0
BBX 11 19 0 -4
BITMAP
3FE0
7C40
7C40
FC40
FC40
FC40
7C40
3C40
0440
0440
0440
0440
0440
0440
0440
0440
0440
0440
0440
ENDCHAR
STARTCHAR periodcentered
ENCODING 183
SWIDTH 188 0
DWIDTH 6 0
BBX 2 1 2 7
BITMAP
C0
ENDCHAR
STARTCHAR cedilla
ENCODING 184
SWIDTH 226 0
DWIDTH 7 0
BBX 3 4 2 -4
BITMAP
40
40
20
E0
ENDCHAR
STARTCHAR uni00B9
ENCODING 185
SWIDTH 226 0
DWIDTH 7 0
BBX 3 7 2 8
BITMAP
60
A0
20
20
20
20
20
ENDCHAR
STARTCHAR ordmasculine
ENCODING 186
SWIDTH 248 0
DWIDTH 8 0
BBX 6 7 1 8
BITMAP
78
84
84
84
84
84
78
ENDCHAR
STARTCHAR guillemotright
ENCODING 187
SWIDTH 377 0
DWIDTH 12 0
BBX 8 9 2 1
BITMAP
88
44
66
22
11
33
22
44
84
ENDCHAR
STARTCHAR onequarter
ENCODING 188
SWIDTH 565 0
DWIDTH 18 0
BBX 16 16 2 -1
BITMAP
6008
A010
2020
2020
2040
2080
2080
0100
0204
020C
0414
0834
1024
107F
2004
4000
ENDCHAR
STARTCHAR onehalf
ENCODING 189
SWIDTH 565 0
DWIDTH 18 0
BBX 15 16 2 -1
BITMAP
6008
A010
2020
2020
2040
2080
2100
0100
023E
0422
0402
0806
100C
2010
2020
401E
ENDCHAR
STARTCHAR threequarters
ENCODING 190
SWIDTH 565 0
DWIDTH 18 0
BBX 17 16 1 -1
BITMAP
780400
880800
081800
301000
082000
0C4000
D84000
208000
010200
010600
020A00
041A00
081200
083F80
100200
200000
ENDCHAR
STARTCHAR questiondown
ENCODING 191
SWIDTH 414 0
DWIDTH 13 0
BBX 9 16 2 -5
BITMAP
0C00
0C00
0000
0000
0800
0800
1800
1000
6000
4000
C000
8080
C080
C180
7F00
0800
ENDCHAR
STARTCHAR Agrave
ENCODING 192
SWIDTH 437 0
DWIDTH 14 0
BBX 14 19 0 0
BITMAP
0600
0600
0200
0000
0300
0700
0780
0480
0CC0
08C0
1840
1060
1020
3FF0
2010
6010
4018
4008
C00C
ENDCHAR
STARTCHAR Aacute
ENCODING 193
SWIDTH 437 0
DWIDTH 14 0
BBX 14 18 0 0
BITMAP
0100
0200
0000
0300
0700
0780
0480
0CC0
08C0
1840
1060
1020
3FF0
2010
6010
4018
4008
C00C
ENDCHAR
STARTCHAR Acircumflex
ENCODING 194
SWIDTH 437 0
DWIDTH 14 0
BBX 14 18 0 0
BITMAP
0700
0D80
0000
0300
0700
0780
0480
0CC0
08C0
1840
1060
1020
3FF0
2010
6010
4018
4008
C00C
ENDCHAR
STARTCHAR Atilde
ENCODING 195
SWIDTH 437 0
DWIDTH 14 0
BBX 14 18 0 0
BITMAP
0C40
1380
0000
0300
0700
0780
0480
0CC0
08C0
1840
1060
1020
3FF0
2010
6010
4018
4008
C00C
ENDCHAR
STARTCHAR Adieresis
ENCODING 196
SWIDTH 437 0
DWIDTH 14 0
BBX 14 18 0 0
BITMAP
0880
0880
0000
0300
0700
0780
0480
0CC0
08C0
1840
1060
1020
3FF0
2010
6010
4018
4008
C00C
ENDCHAR
STARTCHAR Aring
ENCODING 197
SWIDTH 437 0
DWIDTH 14 0
BBX 14 19 0 0
BITMAP
0700
0500
0300
0000
0300
0700
0780
0480
0CC0
08C0
1840
1060
1020
3FF0
2010
6010
4018
4008
C00C
ENDCHAR
STARTCHAR AE
ENCODING 198
SWIDTH 678 0
DWIDTH 22 0
BBX 19 15 1 0
BITMAP
03FFE0
032000
062000
062000
0C2000
0C2000
082000
183FC0
102000
3FE000
3FE000
602000
402000
C02000
803FE0
ENDCHAR
STARTCHAR Ccedilla
ENCODING 199
SWIDTH 473 0
DWIDTH 15 0
BBX 13 19 1 -4
BITMAP
0FC0
1860
2030
6018
4018
C000
C000
C000
C000
C000
4008
6018
2010
3860
0FC0
0200
0200
0100
0700
ENDCHAR
STARTCHAR Egrave
ENCODING 200
SWIDTH 400 0
DWIDTH 13 0
BBX 10 19 2 0
BITMAP
1800
1800
0800
0000
FF80
8000
8000
8000
8000
8000
8000
FF80
8000
8000
8000
8000
8000
8000
FFC0
ENDCHAR
STARTCHAR Eacute
ENCODING 201
SWIDTH 400 0
DWIDTH 13 0
BBX 10 19 2 0
BITMAP
0400
0800
0000
0000
FF80
8000
8000
8000
8000
8000
8000
FF80
8000
8000
8000
8000
8000
8000
FFC0
ENDCHAR
STARTCHAR Ecircumflex
ENCODING 202
SWIDTH 400 0
DWIDTH 13 0
BBX 10 19 2 0
BITMAP
1C00
3600
0000
0000
FF80
8000
8000
8000
8000
8000
8000
FF80
8000
8000
8000
8000
8000
8000
FFC0
ENDCHAR
STARTCHAR Edieresis
ENCODING 203
SWIDTH 400 0
DWIDTH 13 0
BBX 10 18 2 0
BITMAP
2200
2200
0000
FF80
8000
8000
8000
8000
8000
8000
FF80
8000
8000
8000
8000
8000
8000
FFC0
ENDCHAR
STARTCHAR Igrave
ENCODING 204
SWIDTH 182 0
DWIDTH 6 0
BBX 3 19 1 0
BITMAP
C0
C0
40
00
60
60
60
60
60
60
60
60
60
60
60
60
60
60
60
ENDCHAR
STARTCHAR Iacute
ENCODING 205
SWIDTH 182 0
DWIDTH 6 0
BBX 2 19 2 0
BITMAP
40
80
00
00
C0
C0
C0
C0
C0
C0
C0
C0
C0
C0
C0
C0
C0
C0
C0
ENDCHAR
STARTCHAR Icircumflex
ENCODING 206
SWIDTH 182 0
DWIDTH 6 0
BBX 5 19 0 0
BITMAP
70
D8
00
00
30
30
30
30
30
30
30
30
30
30
30
30
30
30
30
ENDCHAR
STARTCHAR Idieresis
ENCODING 207
SWIDTH 182 0
DWIDTH 6 0
BBX 5 18 0 0
BITMAP
88
88
00
30
30
30
30
30
30
30
30
30
30
30
30
30
30
30
ENDCHAR
STARTCHAR Eth
ENCODING 208
SWIDTH 490 0
DWIDTH 16 0
BBX 14 15 0 0
BITMAP
3FE0
20F0
2018
200C
200C
2004
2004
FF04
2004
200C
200C
200C
2018
20F0
3FC0
ENDCHAR
STARTCHAR Ntilde
ENCODING 209
SWIDTH 473 0
DWIDTH 15 0
BBX 11 18 2 0
BITMAP
1880
2700
0000
C020
C020
A020
A020
9020
8820
8820
8420
8220
8220
8120
8120
80A0
8060
8060
ENDCHAR
STARTCHAR Ograve
ENCODING 210
SWIDTH 509 0
DWIDTH 16 0
BBX 14 19 1 0
BITMAP
0600
0600
0200
0000
0FC0
1830
2018
6008
400C
C00C
C004
C004
C004
C00C
400C
6008
2018
1830
0FC0
ENDCHAR
STARTCHAR Oacute
ENCODING 211
SWIDTH 509 0
DWIDTH 16 0
BBX 14 19 1 0
BITMAP
0080
0100
0000
0000
0FC0
1830
2018
6008
400C
C00C
C004
C004
C004
C00C
400C
6008
2018
1830
0FC0
ENDCHAR
STARTCHAR Ocircumflex
ENCODING 212
SWIDTH 509 0
DWIDTH 16 0
BBX 14 19 1 0
BITMAP
0380
06C0
0000
0000
0FC0
1830
2018
6008
400C
C00C
C004
C004
C004
C00C
400C
6008
2018
1830
0FC0
ENDCHAR
STARTCHAR Otilde
ENCODING 213
SWIDTH 509 0
DWIDTH 16 0
BBX 14 18 1 0
BITMAP
0620
09C0
0000
0FC0
1830
2018
6008
400C
C00C
C004
C004
C004
C00C
400C
6008
2018
1830
0FC0
ENDCHAR
STARTCHAR Odieresis
ENCODING 214
SWIDTH 509 0
DWIDTH 16 0
BBX 14 18 1 0
BITMAP
0440
0440
0000
0FC0
1830
2018
6008
400C
C00C
C004
C004
C004
C00C
400C
6008
2018
1830
0FC0
ENDCHAR
STARTCHAR multiply
ENCODING 215
SWIDTH 396 0
DWIDTH 13 0
BBX 8 8 2 3
BITMAP
C1
62
34
18
1C
26
43
01
ENDCHAR
STARTCHAR Oslash
ENCODING 216
SWIDTH 527 0
DWIDTH 17 0
BBX 15 15 1 0
BITMAP
0FE4
1838
3018
601C
402C
C044
C086
C106
C206
C404
480C
780C
3018
3830
4FE0
ENDCHAR
STARTCHAR Ugrave
ENCODING 217
SWIDTH 473 0
DWIDTH 15 0
BBX 11 19 2 0
BITMAP
1800
1800
0800
0000
8020
8020
8020
8020
8020
8020
8020
8020
8020
8020
8020
8020
C060
60C0
1F00
ENDCHAR
STARTCHAR Uacute
ENCODING 218
SWIDTH 473 0
DWIDTH 15 0
BBX 11 19 2 0
BITMAP
0200
0400
0000
0000
8020
8020
8020
8020
8020
8020
8020
8020
8020
8020
8020
8020
C060
60C0
1F00
ENDCHAR
STARTCHAR Ucircumflex
ENCODING 219
SWIDTH 473 0
DWIDTH 15 0
BBX 11 19 2 0
BITMAP
0E00
1B00
0000
0000
8020
8020
8020
8020
8020
8020
8020
8020
8020
8020
8020
8020
C060
60C0
1F00
ENDCHAR
STARTCHAR Udieresis
ENCODING 220
SWIDTH 473 0
DWIDTH 15 0
BBX 11 18 2 0
BITMAP
1100
1100
0000
8020
8020
8020
8020
8020
8020
8020
8020
8020
8020
8020
8020
C060
60C0
1F00
ENDCHAR
STARTCHAR Yacute
ENCODING 221
SWIDTH 400 0
DWIDTH 13 0
BBX 12 19 0 0
BITMAP
0100
0200
0000
0000
C010
6030
2020
3040
18C0
0880
0D00
0700
0200
0200
0200
0200
0200
0200
0200
ENDCHAR
STARTCHAR Thorn
ENCODING 222
SWIDTH 452 0
DWIDTH 14 0
BBX 11 15 2 0
BITMAP
8000
8000
8000
FF80
83C0
8060
8020
8020
8020
8060
83C0
FF00
8000
8000
8000
ENDCHAR
STARTCHAR germandbls
ENCODING 223
SWIDTH 414 0
DWIDTH 13 0
BBX 10 15 2 0
BITMAP
7E00
4300
C300
8300
8200
8600
8400
8400
8600
8180
80C0
8040
8040
98C0
8F80
ENDCHAR
STARTCHAR agrave
ENCODING 224
SWIDTH 364 0
DWIDTH 12 0
BBX 9 15 1 0
BITMAP
1800
1800
0800
0000
3E00
6180
C080
0080
0780
7C80
C080
8180
8180
C280
7C80
ENDCHAR
STARTCHAR aacute
ENCODING 225
SWIDTH 364 0
DWIDTH 12 0
BBX 9 15 1 0
BITMAP
0400
0800
0000
0000
3E00
6180
C080
0080
0780
7C80
C080
8180
8180
C280
7C80
ENDCHAR
STARTCHAR acircumflex
ENCODING 226
SWIDTH 364 0
DWIDTH 12 0
BBX 9 15 1 0
BITMAP
1C00
3600
0000
0000
3E00
6180
C080
0080
0780
7C80
C080
8180
8180
C280
7C80
ENDCHAR
STARTCHAR atilde
ENCODING 227
SWIDTH 364 0
DWIDTH 12 0
BBX 9 15 1 0
BITMAP
3100
4E00
0000
0000
3E00
6180
C080
0080
0780
7C80
C080
8180
8180
C280
7C80
ENDCHAR
STARTCHAR adieresis
ENCODING 228
SWIDTH 364 0
DWIDTH 12 0
BBX 9 15 1 0
BITMAP
2200
2200
0000
0000
3E00
6180
C080
0080
0780
7C80
C080
8180
8180
C280
7C80
ENDCHAR
STARTCHAR aring
ENCODING 229
SWIDTH 364 0
DWIDTH 12 0
BBX 9 15 1 0
BITMAP
1C00
1400
0C00
0000
3E00
6180
C080
0080
0780
7C80
C080
8180
8180
C280
7C80
ENDCHAR
STARTCHAR ae
ENCODING 230
SWIDTH 603 0
DWIDTH 19 0
BBX 17 11 1 0
BITMAP
3F3E00
61E300
41C180
008080
018080
3EFF80
608000
C08000
C18180
C34100
7C3E00
ENDCHAR
STARTCHAR ccedilla
ENCODING 231
SWIDTH 364 0
DWIDTH 12 0
BBX 10 15 1 -4
BITMAP
1E00
6180
4080
C000
8000
8000
8000
C000
40C0
6180
1F00
0800
0800
0400
1C00
ENDCHAR
STARTCHAR egrave
ENCODING 232
SWIDTH 364 0
DWIDTH 12 0
BBX 10 15 1 0
BITMAP
1800
1800
0800
0000
1E00
6100
4080
C080
80C0
FFC0
8000
8000
4080
6180
1E00
ENDCHAR
STARTCHAR eacute
ENCODING 233
SWIDTH 364 0
DWIDTH 12 0
BBX 10 15 1 0
BITMAP
0400
0800
0000
0000
1E00
6100
4080
C080
80C0
FFC0
8000
8000
4080
6180
1E00
ENDCHAR
STARTCHAR ecircumflex
ENCODING 234
SWIDTH 364 0
DWIDTH 12 0
BBX 10 15 1 0
BITMAP
1C00
3600
0000
0000
1E00
6100
4080
C080
80C0
FFC0
8000
8000
4080
6180
1E00
ENDCHAR
STARTCHAR edieresis
ENCODING 235
SWIDTH 364 0
DWIDTH 12 0
BBX 10 14 1 0
BITMAP
2200
2200
0000
1E00
6100
4080
C080
80C0
FFC0
8000
8000
4080
6180
1E00
ENDCHAR
STARTCHAR igrave
ENCODING 236
SWIDTH 188 0
DWIDTH 6 0
BBX 3 15 1 0
BITMAP
C0
C0
40
00
60
60
60
60
60
60
60
60
60
60
60
ENDCHAR
STARTCHAR iacute
ENCODING 237
SWIDTH 188 0
DWIDTH 6 0
BBX 3 15 2 0
BITMAP
20
40
00
00
C0
C0
C0
C0
C0
C0
C0
C0
C0
C0
C0
ENDCHAR
STARTCHAR icircumflex
ENCODING 238
SWIDTH 188 0
DWIDTH 6 0
BBX 5 15 0 0
BITMAP
70
D8
00
00
30
30
30
30
30
30
30
30
30
30
30
ENDCHAR
STARTCHAR idieresis
ENCODING 239
SWIDTH 188 0
DWIDTH 6 0
BBX 5 14 0 0
BITMAP
88
88
00
30
30
30
30
30
30
30
30
30
30
30
ENDCHAR
STARTCHAR eth
ENCODING 240
SWIDTH 377 0
DWIDTH 12 0
BBX 10 15 1 0
BITMAP
0900
0600
1A00
0300
1D00
7380
4080
C0C0
C0C0
80C0
80C0
C0C0
4080
6180
3F00
ENDCHAR
STARTCHAR ntilde
ENCODING 241
SWIDTH 364 0
DWIDTH 12 0
BBX 8 15 2 0
BITMAP
62
9C
00
00
BE
E3
C1
81
81
81
81
81
81
81
81
ENDCHAR
STARTCHAR ograve
ENCODING 242
SWIDTH 364 0
DWIDTH 12 0
BBX 10 15 1 0
BITMAP
1800
1800
0800
0000
3E00
6100
4080
C080
80C0
80C0
80C0
C080
4080
6100
1E00
ENDCHAR
STARTCHAR oacute
ENCODING 243
SWIDTH 364 0
DWIDTH 12 0
BBX 10 15 1 0
BITMAP
0400
0800
0000
0000
3E00
6100
4080
C080
80C0
80C0
80C0
C080
4080
6100
1E00
ENDCHAR
STARTCHAR ocircumflex
ENCODING 244
SWIDTH 364 0
DWIDTH 12 0
BBX 10 15 1 0
BITMAP
1C00
3600
0000
0000
3E00
6100
4080
C080
80C0
80C0
80C0
C080
4080
6100
1E00
ENDCHAR
STARTCHAR otilde
ENCODING 245
SWIDTH 364 0
DWIDTH 12 0
BBX 10 15 1 0
BITMAP
3100
4E00
0000
0000
3E00
6100
4080
C080
80C0
80C0
80C0
C080
4080
6100
1E00
ENDCHAR
STARTCHAR odieresis
ENCODING 246
SWIDTH 364 0
DWIDTH 12 0
BBX 10 14 1 0
BITMAP
2200
2200
0000
3E00
6100
4080
C080
80C0
80C0
80C0
C080
4080
6100
1E00
ENDCHAR
STARTCHAR divide
ENCODING 247
SWIDTH 372 0
DWIDTH 12 0
BBX 10 8 1 3
BITMAP
0C00
0000
0000
FFC0
0000
0000
0C00
0C00
ENDCHAR
STARTCHAR oslash
ENCODING 248
SWIDTH 414 0
DWIDTH 13 0
BBX 10 12 2 -1
BITMAP
3E80
6300
C180
8280
84C0
88C0
88C0
90C0
E080
6180
7F00
8000
ENDCHAR
STARTCHAR ugrave
ENCODING 249
SWIDTH 364 0
DWIDTH 12 0
BBX 8 15 2 0
BITMAP
30
30
10
00
81
81
81
81
81
81
81
83
83
C5
79
ENDCHAR
STARTCHAR uacute
ENCODING 250
SWIDTH 364 0
DWIDTH 12 0
BBX 8 15 2 0
BITMAP
08
10
00
00
81
81
81
81
81
81
81
83
83
C5
79
ENDCHAR
STARTCHAR ucircumflex
ENCODING 251
SWIDTH 364 0
DWIDTH 12 0
BBX 8 15 2 0
BITMAP
38
6C
00
00
81
81
81
81
81
81
81
83
83
C5
79
ENDCHAR
STARTCHAR udieresis
ENCODING 252
SWIDTH 364 0
DWIDTH 12 0
BBX 8 14 2 0
BITMAP
44
44
00
81
81
81
81
81
81
81
83
83
C5
79
ENDCHAR
STARTCHAR yacute
ENCODING 253
SWIDTH 327 0
DWIDTH 10 0
BBX 9 19 1 -4
BITMAP
0400
0800
0000
0000
8080
8180
C100
4100
4300
2200
2600
3400
1400
1C00
1800
1800
1000
1000
E000
ENDCHAR
STARTCHAR thorn
ENCODING 254
SWIDTH 377 0
DWIDTH 12 0
BBX 9 19 2 -4
BITMAP
8000
8000
8000
8000
BE00
E300
C100
8180
8180
8080
8180
8180
8100
C300
BE00
8000
8000
8000
8000
ENDCHAR
STARTCHAR ydieresis
ENCODING 255
SWIDTH 327 0
DWIDTH 10 0
BBX 9 18 1 -4
BITMAP
2200
2200
0000
8080
8180
C100
4100
4300
2200
2600
3400
1400
1C00
1800
1800
1000
1000
E000
ENDCHAR
STARTCHAR dotlessi
ENCODING 305
SWIDTH 188 0
DWIDTH 6 0
BBX 2 11 2 0
BITMAP
C0
C0
C0
C0
C0
C0
C0
C0
C0
C0
C0
ENDCHAR
STARTCHAR OE
ENCODING 338
SWIDTH 678 0
DWIDTH 22 0
BBX 19 15 2 0
BITMAP
1F3FC0
60B000
407000
C07000
C03000
803000
803000
803FC0
803000
803000
C03000
C07000
407000
60F000
1F3FE0
ENDCHAR
STARTCHAR oe
ENCODING 339
SWIDTH 640 0
DWIDTH 21 0
BBX 18 11 1 0
BITMAP
1E1F00
61B180
40E0C0
C0C040
C04040
C07FC0
C04000
C0C000
40E040
61B0C0
3F1F80
ENDCHAR
STARTCHAR Scaron
ENCODING 352
SWIDTH 400 0
DWIDTH 13 0
BBX 11 19 1 0
BITMAP
1900
0E00
0000
0000
1F00
6080
4040
4040
4000
4000
3000
0F00
01C0
0060
8060
C060
4060
60C0
1F00
ENDCHAR
STARTCHAR scaron
ENCODING 353
SWIDTH 327 0
DWIDTH 10 0
BBX 8 15 1 0
BITMAP
64
38
00
00
3C
42
81
80
40
3C
03
01
81
C3
3E
ENDCHAR
STARTCHAR Ydieresis
ENCODING 376
SWIDTH 400 0
DWIDTH 13 0
BBX 12 18 0 0
BITMAP
1100
1100
0000
C010
6030
2020
3040
18C0
0880
0D00
0700
0200
0200
0200
0200
0200
0200
0200
ENDCHAR
STARTCHAR Zcaron
ENCODING 381
SWIDTH 400 0
DWIDTH 13 0
BBX 11 19 1 0
BITMAP
1900
0E00
0000
0000
FFE0
0060
00C0
0180
0100
0300
0600
0C00
0800
1800
3000
6000
4000
C000
FFE0
ENDCHAR
STARTCHAR zcaron
ENCODING 382
SWIDTH 327 0
DWIDTH 10 0
BBX 10 15 0 0
BITMAP
3200
1C00
0000
0000
7FC0
0180
0100
0300
0600
0C00
1800
1000
2000
6000
FFC0
ENDCHAR
STARTCHAR florin
ENCODING 402
SWIDTH 377 0
DWIDTH 12 0
BBX 10 20 1 -5
BITMAP
03C0
0200
0600
0600
1F80
0400
0400
0400
0C00
0C00
0C00
0800
0800
0800
1800
1800
1000
1000
F000
4000
ENDCHAR
STARTCHAR circumflex
ENCODING 710
SWIDTH 226 0
DWIDTH 7 0
BBX 5 2 1 13
BITMAP
70
D8
ENDCHAR
STARTCHAR caron
ENCODING 711
SWIDTH 226 0
DWIDTH 7 0
BBX 5 2 1 13
BITMAP
C8
70
ENDCHAR
STARTCHAR ring
ENCODING 730
SWIDTH 226 0
DWIDTH 7 0
BBX 3 3 2 12
BITMAP
E0
A0
60
ENDCHAR
STARTCHAR tilde
ENCODING 732
SWIDTH 226 0
DWIDTH 7 0
BBX 7 2 0 13
BITMAP
62
9C
ENDCHAR
STARTCHAR uni0E01
ENCODING 3585
SWIDTH 399 0
DWIDTH 13 0
BBX 10 13 1 0
BITMAP
1F00
6180
C0C0
3040
6040
4040
4040
4040
4040
4040
4040
4040
4040
ENDCHAR
STARTCHAR uni0E02
ENCODING 3586
SWIDTH 375 0
DWIDTH 12 0
BBX 9 13 1 0
BITMAP
7880
E480
9480
9480
EC80
0880
0880
0880
0880
0880
0880
0880
1F80
ENDCHAR
STARTCHAR uni0E03
ENCODING 3587
SWIDTH 399 0
DWIDTH 13 0
BBX 10 13 1 0
BITMAP
6440
9A40
E340
9640
9440
E440
0440
0440
0440
0440
0440
0440
1FC0
ENDCHAR
STARTCHAR uni0E04
ENCODING 3588
SWIDTH 416 0
DWIDTH 13 0
BBX 9 13 2 0
BITMAP
1E00
6100
C080
9C80
9280
B280
BC80
A080
E080
C080
C080
C080
8080
ENDCHAR
STARTCHAR uni0E05
ENCODING 3589
SWIDTH 416 0
DWIDTH 13 0
BBX 10 13 2 0
BITMAP
7380
CC80
80C0
80C0
8CC0
92C0
B2C0
ACC0
A0C0
C0C0
C0C0
C0C0
80C0
ENDCHAR
STARTCHAR uni0E06
ENCODING 3590
SWIDTH 487 0
DWIDTH 16 0
BBX 13 13 1 0
BITMAP
7618
DA18
F118
9218
9418
7418
0418
1E18
3598
2458
2438
3428
1C18
ENDCHAR
STARTCHAR uni0E07
ENCODING 3591
SWIDTH 312 0
DWIDTH 10 0
BBX 8 13 0 0
BITMAP
06
09
09
07
01
C1
41
21
11
09
05
03
01
ENDCHAR
STARTCHAR uni0E08
ENCODING 3592
SWIDTH 382 0
DWIDTH 12 0
BBX 9 13 1 0
BITMAP
3E00
6300
C080
9C80
9680
9680
1E80
0380
0180
0180
0180
0080
0080
ENDCHAR
STARTCHAR uni0E09
ENCODING 3593
SWIDTH 405 0
DWIDTH 13 0
BBX 11 13 1 0
BITMAP
1E00
6180
4080
9C40
A440
A440
1C40
0840
0840
08E0
0920
0B20
0CE0
ENDCHAR
STARTCHAR uni0E0A
ENCODING 3594
SWIDTH 382 0
DWIDTH 12 0
BBX 11 14 0 0
BITMAP
0020
3C40
6380
73C0
D240
DE40
7640
0640
0640
0640
0640
0640
0640
0FC0
ENDCHAR
STARTCHAR uni0E0B
ENCODING 3595
SWIDTH 382 0
DWIDTH 12 0
BBX 10 14 1 0
BITMAP
0040
6480
9B00
E380
A480
B480
E480
0480
0480
0480
0480
0480
0480
1F80
ENDCHAR
STARTCHAR uni0E0C
ENCODING 3596
SWIDTH 596 0
DWIDTH 19 0
BBX 16 13 1 0
BITMAP
1F01
6181
C0C1
3041
6041
4041
4041
4041
41E1
7B59
4A45
4B43
39C1
ENDCHAR
STARTCHAR uni0E0D
ENCODING 3597
SWIDTH 607 0
DWIDTH 19 0
BBX 17 18 1 -5
BITMAP
1F0180
618180
C0C180
304180
604180
404180
404180
404180
404180
784180
484180
484180
387F80
000000
007100
009300
009600
007C00
ENDCHAR
STARTCHAR uni0E0E
ENCODING 3598
SWIDTH 439 0
DWIDTH 14 0
BBX 11 21 1 -8
BITMAP
0F80
3060
6020
1C20
1020
3020
3020
3020
3020
F020
B020
9020
E020
0020
0020
0820
0820
7820
CC20
CA40
7180
ENDCHAR
STARTCHAR uni0E0F
ENCODING 3599
SWIDTH 439 0
DWIDTH 14 0
BBX 11 21 1 -8
BITMAP
0F80
3060
6020
1C20
1020
3020
3020
3020
3020
F020
B020
9020
E020
0020
0020
0820
0820
7820
C920
CEE0
7280
ENDCHAR
STARTCHAR uni0E10
ENCODING 3600
SWIDTH 382 0
DWIDTH 12 0
BBX 11 22 0 -8
BITMAP
0020
0F20
10E0
2000
3F80
00C0
1C40
1240
1240
1E40
01C0
0180
0180
0080
0000
11C0
1240
1240
F1C0
9040
9A40
E580
ENDCHAR
STARTCHAR uni0E11
ENCODING 3601
SWIDTH 503 0
DWIDTH 16 0
BBX 13 13 1 0
BITMAP
6470
9A48
E348
9688
9488
E588
0508
0508
0708
0608
0608
0608
0408
ENDCHAR
STARTCHAR uni0E12
ENCODING 3602
SWIDTH 614 0
DWIDTH 20 0
BBX 16 13 2 0
BITMAP
7381
CC81
80C1
80C1
9CC1
92C1
92C1
9CC1
89E1
92D1
A2CD
C2C5
C183
ENDCHAR
STARTCHAR uni0E13
ENCODING 3603
SWIDTH 607 0
DWIDTH 19 0
BBX 18 13 1 0
BITMAP
1F0100
618100
C0C100
304100
604100
404100
404100
404100
404380
784C40
485C40
486440
384380
ENDCHAR
STARTCHAR uni0E14
ENCODING 3604
SWIDTH 416 0
DWIDTH 13 0
BBX 9 13 2 0
BITMAP
1E00
6100
C080
9C80
9280
9280
9C80
8C80
9880
9080
A080
C080
8080
ENDCHAR
STARTCHAR uni0E15
ENCODING 3605
SWIDTH 416 0
DWIDTH 13 0
BBX 9 13 2 0
BITMAP
7780
CC80
8080
8080
9C80
9680
9280
9C80
8880
9080
A080
C080
C080
ENDCHAR
STARTCHAR uni0E16
ENCODING 3606
SWIDTH 399 0
DWIDTH 13 0
BBX 10 13 1 0
BITMAP
1F00
6180
C0C0
3040
6040
4040
4040
4040
4040
7840
4840
4840
3040
ENDCHAR
STARTCHAR uni0E17
ENCODING 3607
SWIDTH 428 0
DWIDTH 14 0
BBX 11 13 1 0
BITMAP
E1C0
9160
9220
F220
1620
1420
1420
1C20
1820
1820
1820
1020
1020
ENDCHAR
STARTCHAR uni0E18
ENCODING 3608
SWIDTH 358 0
DWIDTH 11 0
BBX 9 13 1 0
BITMAP
1F00
2180
4080
C000
FF00
3100
3100
3100
3100
3100
3100
3100
7F00
ENDCHAR
STARTCHAR uni0E19
ENCODING 3609
SWIDTH 428 0
DWIDTH 14 0
BBX 12 13 1 0
BITMAP
E020
9020
9020
F020
1020
1020
1020
1020
10E0
1390
1490
1890
1070
ENDCHAR
STARTCHAR uni0E1A
ENCODING 3610
SWIDTH 446 0
DWIDTH 14 0
BBX 11 13 1 0
BITMAP
E020
9020
9020
F020
1020
1020
1020
1020
1020
1020
1020
1020
7FE0
ENDCHAR
STARTCHAR uni0E1B
ENCODING 3611
SWIDTH 446 0
DWIDTH 14 0
BBX 11 20 1 0
BITMAP
0020
0020
0020
0020
0020
0020
0020
E020
9020
9020
F020
1020
1020
1020
1020
1020
1020
1020
1020
7FE0
ENDCHAR
STARTCHAR uni0E1C
ENCODING 3612
SWIDTH 405 0
DWIDTH 13 0
BBX 9 13 2 0
BITMAP
6080
9080
9080
E080
8080
8080
8080
8880
9480
A280
A280
C180
8080
ENDCHAR
STARTCHAR uni0E1D
ENCODING 3613
SWIDTH 405 0
DWIDTH 13 0
BBX 9 20 2 0
BITMAP
0080
0080
0080
0080
0080
0080
0080
6080
9080
9080
E080
8080
8080
8080
8880
9480
A280
A280
C180
8080
ENDCHAR
STARTCHAR uni0E1E
ENCODING 3614
SWIDTH 462 0
DWIDTH 15 0
BBX 12 13 1 0
BITMAP
E110
9310
9290
F290
1490
14D0
1450
1850
1870
1830
1830
1030
1010
ENDCHAR
STARTCHAR uni0E1F
ENCODING 3615
SWIDTH 462 0
DWIDTH 15 0
BBX 12 20 1 0
BITMAP
0010
0010
0010
0010
0010
0010
0010
E110
9310
9290
F290
1490
14D0
1450
1850
1870
1830
1830
1030
1010
ENDCHAR
STARTCHAR uni0E20
ENCODING 3616
SWIDTH 439 0
DWIDTH 14 0
BBX 11 13 1 0
BITMAP
0F80
3060
6020
1C20
1020
3020
3020
3020
3020
F020
B020
9020
E020
ENDCHAR
STARTCHAR uni0E21
ENCODING 3617
SWIDTH 434 0
DWIDTH 14 0
BBX 11 13 1 0
BITMAP
7020
9020
9020
7020
1020
1020
1020
1020
7C20
D220
9120
D0A0
7060
ENDCHAR
STARTCHAR uni0E22
ENCODING 3618
SWIDTH 399 0
DWIDTH 13 0
BBX 10 13 1 0
BITMAP
3840
4840
AC40
B840
8040
4040
3840
6040
6040
6040
6040
6040
7FC0
ENDCHAR
STARTCHAR uni0E23
ENCODING 3619
SWIDTH 301 0
DWIDTH 10 0
BBX 8 13 1 0
BITMAP
3C
42
81
FD
0C
0C
0C
0C
0C
3C
2C
2C
38
ENDCHAR
STARTCHAR uni0E24
ENCODING 3620
SWIDTH 399 0
DWIDTH 13 0
BBX 10 21 1 -8
BITMAP
1F00
6180
C0C0
3040
6040
4040
4040
4040
4040
7840
4840
4840
3840
0040
0040
0040
0040
0040
0040
0040
0040
ENDCHAR
STARTCHAR uni0E25
ENCODING 3621
SWIDTH 405 0
DWIDTH 13 0
BBX 10 13 1 0
BITMAP
1E00
2180
40C0
C440
8A40
9240
2140
2140
60C0
78C0
48C0
4840
3840
ENDCHAR
STARTCHAR uni0E26
ENCODING 3622
SWIDTH 439 0
DWIDTH 14 0
BBX 11 21 1 -8
BITMAP
0F80
3060
6020
1C20
1020
3020
3020
3020
3020
F020
B020
9020
E020
0020
0020
0020
0020
0020
0020
0020
0020
ENDCHAR
STARTCHAR uni0E27
ENCODING 3623
SWIDTH 346 0
DWIDTH 11 0
BBX 8 13 1 0
BITMAP
3C
42
C1
81
81
81
01
01
01
07
09
09
07
ENDCHAR
STARTCHAR uni0E28
ENCODING 3624
SWIDTH 416 0
DWIDTH 13 0
BBX 10 15 2 0
BITMAP
00C0
0080
3F80
6100
C280
9C80
9280
B280
BC80
A080
E080
C080
C080
C080
8080
ENDCHAR
STARTCHAR uni0E29
ENCODING 3625
SWIDTH 475 0
DWIDTH 15 0
BBX 14 13 1 0
BITMAP
E020
9020
9020
F324
14A8
14B0
13E0
1020
1020
1020
1020
1020
7FE0
ENDCHAR
STARTCHAR uni0E2A
ENCODING 3626
SWIDTH 405 0
DWIDTH 13 0
BBX 10 14 1 0
BITMAP
0080
1F80
2380
46C0
CC40
9A40
9240
2140
2140
40C0
78C0
48C0
4840
3840
ENDCHAR
STARTCHAR uni0E2B
ENCODING 3627
SWIDTH 428 0
DWIDTH 14 0
BBX 11 13 1 0
BITMAP
E0E0
91A0
91A0
F0E0
10A0
10A0
1120
1220
1220
1420
1820
1820
1020
ENDCHAR
STARTCHAR uni0E2C
ENCODING 3628
SWIDTH 462 0
DWIDTH 15 0
BBX 13 17 1 0
BITMAP
0078
0098
0090
0070
E110
9310
9290
F290
1490
1490
1450
1850
1850
1830
1830
1030
1010
ENDCHAR
STARTCHAR uni0E2D
ENCODING 3629
SWIDTH 394 0
DWIDTH 13 0
BBX 10 13 1 0
BITMAP
1E00
6180
C080
9CC0
A440
A440
3C40
2040
2040
2040
2040
2040
3FC0
ENDCHAR
STARTCHAR uni0E2E
ENCODING 3630
SWIDTH 382 0
DWIDTH 12 0
BBX 9 14 2 0
BITMAP
0080
7D80
8700
8700
7900
0100
6100
9100
9100
F100
8100
8100
8100
FF00
ENDCHAR
STARTCHAR uni0E2F
ENCODING 3631
SWIDTH 358 0
DWIDTH 11 0
BBX 9 13 1 0
BITMAP
6180
9180
9380
E680
3D80
0180
0180
0180
0180
0180
0180
0180
0180
ENDCHAR
STARTCHAR uni0E30
ENCODING 3632
SWIDTH 358 0
DWIDTH 11 0
BBX 9 13 1 0
BITMAP
7080
9180
9300
3C00
0000
0000
0000
0000
0000
7080
9180
9300
3C00
ENDCHAR
STARTCHAR uni0E31
ENCODING 3633
SWIDTH 0 0
DWIDTH 0 0
BBX 9 4 -7 15
BITMAP
E080
B100
9600
7800
ENDCHAR
STARTCHAR uni0E32
ENCODING 3634
SWIDTH 346 0
DWIDTH 11 0
BBX 8 13 1 0
BITMAP
3C
42
C1
81
01
01
01
01
01
01
01
01
01
ENDCHAR
STARTCHAR uni0E33
ENCODING 3635
SWIDTH 346 0
DWIDTH 11 0
BBX 14 21 -5 0
BITMAP
7000
4800
8800
4800
7000
0000
0000
0000
00F0
0108
0304
0204
0004
0004
0004
0004
0004
0004
0004
0004
0004
ENDCHAR
STARTCHAR uni0E34
ENCODING 3636
SWIDTH 0 0
DWIDTH 0 0
BBX 10 4 -12 15
BITMAP
3E00
4180
FF40
00C0
ENDCHAR
STARTCHAR uni0E35
ENCODING 3637
SWIDTH 0 0
DWIDTH 0 0
BBX 10 7 -12 15
BITMAP
0040
0040
0040
3E40
41C0
FF40
00C0
ENDCHAR
STARTCHAR uni0E36
ENCODING 3638
SWIDTH 0 0
DWIDTH 0 0
BBX 10 7 -12 15
BITMAP
0180
0240
0240
3F80
4180
FF40
00C0
ENDCHAR
STARTCHAR uni0E37
ENCODING 3639
SWIDTH 0 0
DWIDTH 0 0
BBX 10 7 -12 15
BITMAP
0140
0140
0140
3F40
41C0
FF40
00C0
ENDCHAR
STARTCHAR uni0E38
ENCODING 3640
SWIDTH 0 0
DWIDTH 0 0
BBX 4 6 -6 -7
BITMAP
70
D0
D0
70
10
10
ENDCHAR
STARTCHAR uni0E39
ENCODING 3641
SWIDTH 0 0
DWIDTH 0 0
BBX 6 6 -8 -7
BITMAP
E4
A4
A4
E4
24
7C
ENDCHAR
STARTCHAR uni0E3A
ENCODING 3642
SWIDTH 0 0
DWIDTH 0 0
BBX 3 2 -4 -4
BITMAP
E0
E0
ENDCHAR
STARTCHAR uni0E3F
ENCODING 3647
SWIDTH 437 0
DWIDTH 14 0
BBX 11 19 2 -2
BITMAP
0800
0800
FF00
8980
88C0
8840
8840
88C0
8980
FF00
88C0
8840
8860
8860
8860
88C0
FF80
0800
0800
ENDCHAR
STARTCHAR uni0E40
ENCODING 3648
SWIDTH 201 0
DWIDTH 6 0
BBX 4 13 2 0
BITMAP
80
80
80
80
80
80
80
80
80
F0
90
90
70
ENDCHAR
STARTCHAR uni0E41
ENCODING 3649
SWIDTH 375 0
DWIDTH 12 0
BBX 10 13 2 0
BITMAP
8200
8200
8200
8200
8200
8200
8200
8200
8200
F380
9240
9240
7380
ENDCHAR
STARTCHAR uni0E42
ENCODING 3650
SWIDTH 242 0
DWIDTH 8 0
BBX 8 21 0 0
BITMAP
3C
46
C3
81
60
18
08
08
08
08
08
08
08
08
08
08
08
0E
0B
0B
0E
ENDCHAR
STARTCHAR uni0E43
ENCODING 3651
SWIDTH 278 0
DWIDTH 9 0
BBX 9 21 0 0
BITMAP
7800
4C00
E400
9400
9400
6400
0400
0400
0400
0400
0400
0400
0400
0400
0400
0400
0400
0700
0480
0480
0700
ENDCHAR
STARTCHAR uni0E44
ENCODING 3652
SWIDTH 260 0
DWIDTH 8 0
BBX 8 22 0 0
BITMAP
80
88
98
98
A8
E8
C8
08
08
08
08
08
08
08
08
08
08
08
0F
09
09
07
ENDCHAR
STARTCHAR uni0E45
ENCODING 3653
SWIDTH 346 0
DWIDTH 11 0
BBX 8 21 1 -8
BITMAP
3C
42
C1
81
01
01
01
01
01
01
01
01
01
01
01
01
01
01
01
01
01
ENDCHAR
STARTCHAR uni0E46
ENCODING 3654
SWIDTH 375 0
DWIDTH 12 0
BBX 9 21 1 -8
BITMAP
7B80
9680
9480
E080
0080
0080
0080
0080
0080
0080
0080
0080
0080
0080
0080
0080
0080
0080
0080
0080
0080
ENDCHAR
STARTCHAR uni0E47
ENCODING 3655
SWIDTH 0 0
DWIDTH 0 0
BBX 8 6 -9 15
BITMAP
01
7E
80
AE
AA
5E
ENDCHAR
STARTCHAR uni0E48
ENCODING 3656
SWIDTH 0 0
DWIDTH 0 0
BBX 1 4 -3 15
BITMAP
80
80
80
80
ENDCHAR
STARTCHAR uni0E49
ENCODING 3657
SWIDTH 0 0
DWIDTH 0 0
BBX 8 7 -8 15
BITMAP
60
90
91
71
22
6C
F8
ENDCHAR
STARTCHAR uni0E4A
ENCODING 3658
SWIDTH 0 0
DWIDTH 0 0
BBX 9 5 -9 15
BITMAP
EC80
9280
E280
A500
6E00
ENDCHAR
STARTCHAR uni0E4B
ENCODING 3659
SWIDTH 0 0
DWIDTH 0 0
BBX 5 5 -5 15
BITMAP
20
20
F8
20
20
ENDCHAR
STARTCHAR uni0E4C
ENCODING 3660
SWIDTH 0 0
DWIDTH 0 0
BBX 8 6 -6 15
BITMAP
01
3E
70
90
90
60
ENDCHAR
STARTCHAR uni0E4D
ENCODING 3661
SWIDTH 0 0
DWIDTH 0 0
BBX 5 5 -7 16
BITMAP
70
48
88
48
70
ENDCHAR
STARTCHAR uni0E4E
ENCODING 3662
SWIDTH 0 0
DWIDTH 0 0
BBX 6 7 -6 15
BITMAP
1C
20
20
18
60
80
F0
ENDCHAR
STARTCHAR uni0E4F
ENCODING 3663
SWIDTH 312 0
DWIDTH 10 0
BBX 8 8 1 2
BITMAP
3C
42
99
BD
BD
99
42
3C
ENDCHAR
STARTCHAR uni0E50
ENCODING 3664
SWIDTH 462 0
DWIDTH 15 0
BBX 11 9 2 0
BITMAP
1F00
60C0
C040
8020
8020
8020
C040
60C0
1F00
ENDCHAR
STARTCHAR uni0E51
ENCODING 3665
SWIDTH 462 0
DWIDTH 15 0
BBX 11 11 2 -2
BITMAP
1F00
2180
4040
C040
8C20
D220
5260
7E40
3CC0
0180
0100
ENDCHAR
STARTCHAR uni0E52
ENCODING 3666
SWIDTH 487 0
DWIDTH 16 0
BBX 12 13 2 0
BITMAP
8000
8000
8000
8000
8EE0
9110
9C10
9210
9210
8C10
8010
8010
FFF0
ENDCHAR
STARTCHAR uni0E53
ENCODING 3667
SWIDTH 487 0
DWIDTH 16 0
BBX 12 9 2 0
BITMAP
3CE0
4730
8310
8210
8210
B210
CA10
CA10
7210
ENDCHAR
STARTCHAR uni0E54
ENCODING 3668
SWIDTH 487 0
DWIDTH 16 0
BBX 13 10 2 0
BITMAP
0008
1FF0
6000
C000
8E00
8900
8900
CF00
6400
3FE0
ENDCHAR
STARTCHAR uni0E55
ENCODING 3669
SWIDTH 487 0
DWIDTH 16 0
BBX 13 13 2 0
BITMAP
1C00
1200
2200
1608
1FF0
6000
4000
8E00
8900
8900
8E00
6400
3FE0
ENDCHAR
STARTCHAR uni0E56
ENCODING 3670
SWIDTH 462 0
DWIDTH 15 0
BBX 11 13 2 0
BITMAP
8000
C000
4000
4000
5F80
60C0
0060
0020
7020
5060
48C0
7380
3E00
ENDCHAR
STARTCHAR uni0E57
ENCODING 3671
SWIDTH 487 0
DWIDTH 16 0
BBX 12 13 2 0
BITMAP
0010
0010
0010
0010
7710
CD90
8890
8090
8090
B090
C890
C8B0
78E0
ENDCHAR
STARTCHAR uni0E58
ENCODING 3672
SWIDTH 487 0
DWIDTH 16 0
BBX 13 10 2 0
BITMAP
0008
1FF0
6000
C000
8000
8000
B8E0
ACB0
4320
41E0
ENDCHAR
STARTCHAR uni0E59
ENCODING 3673
SWIDTH 487 0
DWIDTH 16 0
BBX 15 13 1 0
BITMAP
0004
0006
0006
0006
1E76
634C
4188
C080
C0C0
4C40
5240
7220
1C20
ENDCHAR
STARTCHAR uni0E5A
ENCODING 3674
SWIDTH 408 0
DWIDTH 13 0
BBX 11 13 1 0
BITMAP
E120
9120
9320
E720
7920
0120
0120
0120
0120
0120
0120
0120
0120
ENDCHAR
STARTCHAR uni0E5B
ENCODING 3675
SWIDTH 791 0
DWIDTH 25 0
BBX 24 12 1 0
BITMAP
1E0000
610000
400000
C00000
800000
800441
8066A3
805AA2
C0511C
408000
610000
1E0000
ENDCHAR
STARTCHAR uni200B
ENCODING 8203
SWIDTH 0 0
DWIDTH 0 0
BBX 1 1 0 0
BITMAP
00
ENDCHAR
STARTCHAR endash
ENCODING 8211
SWIDTH 327 0
DWIDTH 10 0
BBX 11 1 0 5
BITMAP
FFE0
ENDCHAR
STARTCHAR emdash
ENCODING 8212
SWIDTH 655 0
DWIDTH 21 0
BBX 21 1 0 5
BITMAP
FFFFF8
ENDCHAR
STARTCHAR quoteleft
ENCODING 8216
SWIDTH 145 0
DWIDTH 5 0
BBX 2 5 1 10
BITMAP
40
40
80
C0
C0
ENDCHAR
STARTCHAR quoteright
ENCODING 8217
SWIDTH 145 0
DWIDTH 5 0
BBX 2 5 1 10
BITMAP
C0
C0
40
40
80
ENDCHAR
STARTCHAR quotesinglbase
ENCODING 8218
SWIDTH 150 0
DWIDTH 5 0
BBX 1 4 2 -2
BITMAP
80
80
80
80
ENDCHAR
STARTCHAR quotedblleft
ENCODING 8220
SWIDTH 254 0
DWIDTH 8 0
BBX 6 5 1 10
BITMAP
44
48
88
CC
CC
ENDCHAR
STARTCHAR quotedblright
ENCODING 8221
SWIDTH 254 0
DWIDTH 8 0
BBX 6 5 1 10
BITMAP
CC
CC
44
4C
88
ENDCHAR
STARTCHAR quotedblbase
ENCODING 8222
SWIDTH 226 0
DWIDTH 7 0
BBX 5 5 1 -3
BITMAP
D8
D8
48
88
90
ENDCHAR
STARTCHAR dagger
ENCODING 8224
SWIDTH 377 0
DWIDTH 12 0
BBX 10 19 1 -4
BITMAP
0C00
0C00
0C00
0C00
0C00
FFC0
0C00
0C00
0C00
0C00
0C00
0C00
0C00
0C00
0C00
0C00
0C00
0C00
0C00
ENDCHAR
STARTCHAR daggerdbl
ENCODING 8225
SWIDTH 377 0
DWIDTH 12 0
BBX 10 19 1 -4
BITMAP
0C00
0C00
0C00
0C00
FFC0
0C00
0C00
0C00
0C00
0C00
0C00
0C00
0C00
0C00
FFC0
0C00
0C00
0C00
0C00
ENDCHAR
STARTCHAR bullet
ENCODING 8226
SWIDTH 327 0
DWIDTH 10 0
BBX 5 5 3 5
BITMAP
70
F8
F8
F8
70
ENDCHAR
STARTCHAR ellipsis
ENCODING 8230
SWIDTH 655 0
DWIDTH 21 0
BBX 15 2 3 0
BITMAP
8102
8102
ENDCHAR
STARTCHAR perthousand
ENCODING 8240
SWIDTH 678 0
DWIDTH 22 0
BBX 20 16 1 -1
BITMAP
708000
888000
888000
890000
890000
890000
DA0000
220000
04F0E0
049910
058910
090B10
090910
108910
109120
1060C0
ENDCHAR
STARTCHAR guilsinglleft
ENCODING 8249
SWIDTH 226 0
DWIDTH 7 0
BBX 4 9 1 1
BITMAP
10
30
20
40
C0
40
20
20
10
ENDCHAR
STARTCHAR guilsinglright
ENCODING 8250
SWIDTH 226 0
DWIDTH 7 0
BBX 4 9 2 1
BITMAP
80
40
40
20
30
20
60
40
80
ENDCHAR
STARTCHAR Euro
ENCODING 8364
SWIDTH 364 0
DWIDTH 12 0
BBX 11 15 0 0
BITMAP
07E0
1C20
3000
2000
6000
FFC0
6000
6000
FF80
2000
2000
3000
1000
0C20
07E0
ENDCHAR
STARTCHAR trademark
ENCODING 8482
SWIDTH 678 0
DWIDTH 22 0
BBX 16 8 3 7
BITMAP
FCC3
2145
2145
2145
2129
2129
2129
2111
ENDCHAR
STARTCHAR periodcentered.dup2
ENCODING 8729
SWIDTH 188 0
DWIDTH 6 0
BBX 2 1 2 7
BITMAP
C0
ENDCHAR
STARTCHAR uni25CC
ENCODING 9676
SWIDTH 498 0
DWIDTH 16 0
BBX 14 13 1 1
BITMAP
0B40
0000
2010
0000
4008
0000
C004
0000
4008
4000
2010
2010
0B40
ENDCHAR
STARTCHAR ring.dup3
ENCODING 9702
SWIDTH 226 0
DWIDTH 7 0
BBX 3 3 2 12
BITMAP
E0
A0
60
ENDCHAR
STARTCHAR .notdef
ENCODING -1
SWIDTH 750 0
DWIDTH 24 0
BBX 16 20 4 0
BITMAP
FFFF
8001
8001
8001
8001
8001
8001
8001
8001
8001
8001
8001
8001
8001
8001
8001
8001
8001
8001
FFFF
ENDCHAR
STARTCHAR glyph1
ENCODING -1
SWIDTH 0 0
DWIDTH 0 0
BBX 1 1 0 0
BITMAP
00
ENDCHAR
STARTCHAR glyph2
ENCODING -1
SWIDTH 182 0
DWIDTH 6 0
BBX 1 1 0 0
BITMAP
00
ENDCHAR
STARTCHAR glyph98
ENCODING -1
SWIDTH 0 0
DWIDTH 0 0
BBX 10 16 -10 0
BITMAP
FFC0
FFC0
FFC0
FFC0
FFC0
FFC0
FFC0
FFC0
FFC0
FFC0
FFC0
FFC0
FFC0
FFC0
FFC0
FFC0
ENDCHAR
STARTCHAR glyph99
ENCODING -1
SWIDTH 382 0
DWIDTH 12 0
BBX 9 14 2 0
BITMAP
0080
3C80
4380
8000
FE00
0300
7100
4900
4900
7900
0700
0600
0600
0200
ENDCHAR
STARTCHAR glyph100
ENCODING -1
SWIDTH 0 0
DWIDTH 0 0
BBX 10 4 -14 15
BITMAP
3E00
C180
FE80
01C0
ENDCHAR
STARTCHAR glyph101
ENCODING -1
SWIDTH 0 0
DWIDTH 0 0
BBX 10 7 -14 15
BITMAP
0040
0040
0040
3E40
C1C0
FEC0
01C0
ENDCHAR
STARTCHAR glyph102
ENCODING -1
SWIDTH 0 0
DWIDTH 0 0
BBX 10 7 -14 15
BITMAP
0180
0280
0240
3F80
C180
FE80
01C0
ENDCHAR
STARTCHAR glyph103
ENCODING -1
SWIDTH 0 0
DWIDTH 0 0
BBX 10 7 -14 15
BITMAP
0240
0240
0240
3E40
C1C0
FEC0
01C0
ENDCHAR
STARTCHAR glyph105
ENCODING -1
SWIDTH 0 0
DWIDTH 0 0
BBX 1 4 -5 15
BITMAP
80
80
80
80
ENDCHAR
STARTCHAR glyph106
ENCODING -1
SWIDTH 0 0
DWIDTH 0 0
BBX 8 7 -10 15
BITMAP
E0
A0
A1
E3
26
4C
F0
ENDCHAR
STARTCHAR glyph107
ENCODING -1
SWIDTH 0 0
DWIDTH 0 0
BBX 10 5 -14 15
BITMAP
7E40
8940
B1C0
5280
7700
ENDCHAR
STARTCHAR glyph108
ENCODING -1
SWIDTH 0 0
DWIDTH 0 0
BBX 5 5 -9 15
BITMAP
20
20
F8
20
20
ENDCHAR
STARTCHAR glyph109
ENCODING -1
SWIDTH 0 0
DWIDTH 0 0
BBX 7 6 -8 15
BITMAP
02
7E
E0
90
90
E0
ENDCHAR
STARTCHAR glyph115
ENCODING -1
SWIDTH 607 0
DWIDTH 19 0
BBX 17 13 1 0
BITMAP
1F0180
618180
C0C180
304180
604180
404180
404180
404180
404180
784180
484180
484180
387F80
ENDCHAR
STARTCHAR glyph123
ENCODING -1
SWIDTH 0 0
DWIDTH 0 0
BBX 10 4 -10 15
BITMAP
70C0
9180
9700
7C00
ENDCHAR
STARTCHAR glyph124
ENCODING -1
SWIDTH 0 0
DWIDTH 0 0
BBX 4 5 -8 15
BITMAP
60
90
90
90
60
ENDCHAR
STARTCHAR glyph125
ENCODING -1
SWIDTH 0 0
DWIDTH 0 0
BBX 8 6 -12 15
BITMAP
01
7F
40
A6
75
2E
ENDCHAR
STARTCHAR glyph126
ENCODING -1
SWIDTH 0 0
DWIDTH 0 0
BBX 1 4 -5 23
BITMAP
80
80
80
80
ENDCHAR
STARTCHAR glyph127
ENCODING -1
SWIDTH 0 0
DWIDTH 0 0
BBX 8 7 -10 23
BITMAP
60
A1
B2
62
24
48
F0
ENDCHAR
STARTCHAR glyph128
ENCODING -1
SWIDTH 0 0
DWIDTH 0 0
BBX 9 5 -11 23
BITMAP
6C80
9500
E500
A500
6E00
ENDCHAR
STARTCHAR glyph129
ENCODING -1
SWIDTH 0 0
DWIDTH 0 0
BBX 6 5 -8 23
BITMAP
10
10
FC
10
10
ENDCHAR
STARTCHAR glyph130
ENCODING -1
SWIDTH 0 0
DWIDTH 0 0
BBX 7 6 -8 20
BITMAP
02
3C
60
90
90
60
ENDCHAR
STARTCHAR glyph131
ENCODING -1
SWIDTH 100 0
DWIDTH 3 0
BBX 1 1 0 0
BITMAP
00
ENDCHAR
STARTCHAR glyph190
ENCODING -1
SWIDTH 219 0
DWIDTH 7 0
BBX 1 1 0 0
BITMAP
00
ENDCHAR
STARTCHAR glyph191
ENCODING -1
SWIDTH 219 0
DWIDTH 7 0
BBX 6 3 1 -3
BITMAP
FC
84
84
ENDCHAR
STARTCHAR glyph201
ENCODING -1
SWIDTH 0 0
DWIDTH 0 0
BBX 1 4 -3 23
BITMAP
80
80
80
80
ENDCHAR
STARTCHAR glyph202
ENCODING -1
SWIDTH 0 0
DWIDTH 0 0
BBX 8 7 -8 23
BITMAP
60
91
91
72
26
6C
70
ENDCHAR
STARTCHAR glyph203
ENCODING -1
SWIDTH 0 0
DWIDTH 0 0
BBX 9 5 -9 23
BITMAP
7C80
9280
E280
5700
6600
ENDCHAR
STARTCHAR glyph204
ENCODING -1
SWIDTH 0 0
DWIDTH 0 0
BBX 5 5 -5 23
BITMAP
20
20
F8
20
20
ENDCHAR
STARTCHAR glyph205
ENCODING -1
SWIDTH 0 0
DWIDTH 0 0
BBX 6 6 -5 20
BITMAP
04
7C
E0
A0
A0
E0
ENDCHAR
STARTCHAR glyph221
ENCODING -1
SWIDTH 0 0
DWIDTH 0 0
BBX 4 7 -6 -16
BITMAP
70
D0
D0
70
10
10
10
ENDCHAR
STARTCHAR glyph222
ENCODING -1
SWIDTH 0 0
DWIDTH 0 0
BBX 6 7 -8 -16
BITMAP
E4
A4
A4
E4
24
24
7C
ENDCHAR
STARTCHAR glyph223
ENCODING -1
SWIDTH 0 0
DWIDTH 0 0
BBX 3 2 -4 -11
BITMAP
E0
E0
ENDCHAR
STARTCHAR zero.ccmp
ENCODING -1
SWIDTH 364 0
DWIDTH 12 0
BBX 8 13 2 0
BITMAP
3C
46
C2
83
81
81
81
81
81
83
82
42
3C
ENDCHAR
STARTCHAR one.ccmp
ENCODING -1
SWIDTH 364 0
DWIDTH 12 0
BBX 4 13 3 0
BITMAP
10
30
70
90
10
10
10
10
10
10
10
10
10
ENDCHAR
STARTCHAR two.ccmp
ENCODING -1
SWIDTH 364 0
DWIDTH 12 0
BBX 8 13 2 0
BITMAP
3C
42
C1
81
01
03
06
0C
18
20
40
80
FF
ENDCHAR
STARTCHAR three.ccmp
ENCODING -1
SWIDTH 364 0
DWIDTH 12 0
BBX 8 13 2 0
BITMAP
3C
46
82
02
02
04
1C
03
01
01
83
C2
7C
ENDCHAR
STARTCHAR four.ccmp
ENCODING -1
SWIDTH 364 0
DWIDTH 12 0
BBX 9 13 1 0
BITMAP
0200
0200
0600
0A00
1A00
1200
2200
4200
4200
FF80
0200
0200
0200
ENDCHAR
STARTCHAR five.ccmp
ENCODING -1
SWIDTH 364 0
DWIDTH 12 0
BBX 8 13 2 0
BITMAP
7E
40
40
40
80
FC
C2
01
01
01
83
C2
7C
ENDCHAR
STARTCHAR six.ccmp
ENCODING -1
SWIDTH 364 0
DWIDTH 12 0
BBX 8 13 2 0
BITMAP
3C
62
C3
80
80
BC
C2
81
81
81
81
42
3C
ENDCHAR
STARTCHAR seven.ccmp
ENCODING -1
SWIDTH 364 0
DWIDTH 12 0
BBX 8 13 2 0
BITMAP
FF
02
02
04
08
08
10
10
30
20
20
20
20
ENDCHAR
STARTCHAR eight.ccmp
ENCODING -1
SWIDTH 364 0
DWIDTH 12 0
BBX 8 13 2 0
BITMAP
3C
46
82
82
C2
66
7E
83
81
81
81
C2
7C
ENDCHAR
STARTCHAR nine.ccmp
ENCODING -1
SWIDTH 364 0
DWIDTH 12 0
BBX 8 13 2 0
BITMAP
38
46
82
81
81
83
C3
7D
01
01
82
C6
7C
ENDCHAR
STARTCHAR glyph354
ENCODING -1
SWIDTH 0 0
DWIDTH 0 0
BBX 8 6 -9 22
BITMAP
3B
CC
86
AA
76
0C
ENDCHAR
STARTCHAR glyph355
ENCODING -1
SWIDTH 0 0
DWIDTH 0 0
BBX 1 4 -3 23
BITMAP
80
80
80
80
ENDCHAR
STARTCHAR glyph356
ENCODING -1
SWIDTH 0 0
DWIDTH 0 0
BBX 8 5 -7 23
BITMAP
E0
93
72
24
78
ENDCHAR
STARTCHAR glyph357
ENCODING -1
SWIDTH 0 0
DWIDTH 0 0
BBX 9 4 -9 23
BITMAP
7E80
8280
F300
7700
ENDCHAR
STARTCHAR glyph358
ENCODING -1
SWIDTH 0 0
DWIDTH 0 0
BBX 5 5 -5 23
BITMAP
20
20
F8
20
20
ENDCHAR
STARTCHAR glyph359
ENCODING -1
SWIDTH 0 0
DWIDTH 0 0
BBX 7 5 -5 23
BITMAP
06
78
E0
A0
E0
ENDCHAR
STARTCHAR glyph360
ENCODING -1
SWIDTH 0 0
DWIDTH 0 0
BBX 5 4 -5 23
BITMAP
78
88
88
70
ENDCHAR
STARTCHAR glyph361
ENCODING -1
SWIDTH 0 0
DWIDTH 0 0
BBX 5 6 -5 22
BITMAP
38
20
30
C0
80
70
ENDCHAR
ENDFONT
